<svg width="18" height="19" viewBox="0 0 18 19" fill="none" xmlns="http://www.w3.org/2000/svg">
<g clip-path="url(#clip0_104_4623)">
<path d="M1.69366 2.75684C1.24655 2.75684 0.817746 2.93445 0.501587 3.25061C0.185429 3.56677 0.0078125 3.99557 0.0078125 4.44269L0.0078125 6.69049H6.75122C6.90026 6.69049 7.04319 6.7497 7.14858 6.85508C7.25397 6.96047 7.31317 7.1034 7.31317 7.25244C7.31317 7.53679 7.40308 7.97623 7.65709 8.32914C7.88973 8.65282 8.2831 8.93829 8.99902 8.93829C9.71495 8.93829 10.1083 8.65282 10.341 8.32914C10.595 7.97623 10.6849 7.53679 10.6849 7.25244C10.6849 7.1034 10.7441 6.96047 10.8495 6.85508C10.9549 6.7497 11.0978 6.69049 11.2468 6.69049H17.9902V4.44269C17.9902 3.99557 17.8126 3.56677 17.4965 3.25061C17.1803 2.93445 16.7515 2.75684 16.3044 2.75684H1.69366Z" fill="white"/>
<path d="M17.9902 7.81421H11.7515C11.6701 8.23538 11.5004 8.63452 11.2536 8.98531C10.8119 9.59896 10.0813 10.062 8.99902 10.062C7.91671 10.062 7.18617 9.59896 6.74448 8.98531C6.49761 8.63452 6.32792 8.23538 6.24659 7.81421H0.0078125V14.5576C0.0078125 15.0047 0.185429 15.4335 0.501587 15.7497C0.817746 16.0659 1.24655 16.2435 1.69366 16.2435H16.3044C16.7515 16.2435 17.1803 16.0659 17.4965 15.7497C17.8126 15.4335 17.9902 15.0047 17.9902 14.5576V7.81421Z" fill="white"/>
</g>
<defs>
<clipPath id="clip0_104_4623">
<rect width="17.9824" height="17.9824" fill="white" transform="translate(0.0078125 0.508789)"/>
</clipPath>
</defs>
</svg>
