<svg width="17" height="16" viewBox="0 0 17 16" fill="none" xmlns="http://www.w3.org/2000/svg">
<g opacity="0.6">
<path d="M5.14542 11.3854V12.826C5.14542 12.9357 5.10184 13.0409 5.02427 13.1185C4.9467 13.196 4.8415 13.2396 4.7318 13.2396H3.61383C3.50414 13.2396 3.39893 13.196 3.32136 13.1185C3.24379 13.0409 3.20021 12.9357 3.20021 12.826V11.3854C3.20021 11.2757 3.24379 11.1705 3.32136 11.0929C3.39893 11.0154 3.50414 10.9718 3.61383 10.9718H4.7318C4.8415 10.9718 4.9467 11.0154 5.02427 11.0929C5.10184 11.1705 5.14542 11.2757 5.14542 11.3854ZM7.50307 10.4884H6.38511C6.27541 10.4884 6.1702 10.532 6.09263 10.6096C6.01506 10.6872 5.97148 10.7924 5.97148 10.9021V12.826C5.97148 12.9357 6.01506 13.0409 6.09263 13.1185C6.1702 13.196 6.27541 13.2396 6.38511 13.2396H7.50307C7.61277 13.2396 7.71797 13.196 7.79554 13.1185C7.87311 13.0409 7.91669 12.9357 7.91669 12.826V10.9021C7.91669 10.7924 7.87311 10.6872 7.79554 10.6096C7.71797 10.532 7.61277 10.4884 7.50307 10.4884ZM10.2696 9.40002H9.15638C9.04668 9.40002 8.94147 9.4436 8.8639 9.52117C8.78633 9.59874 8.74275 9.70395 8.74275 9.81365V12.826C8.74275 12.9357 8.78633 13.0409 8.8639 13.1185C8.94147 13.196 9.04668 13.2396 9.15638 13.2396H10.2696C10.3793 13.2396 10.4845 13.196 10.5621 13.1185C10.6397 13.0409 10.6832 12.9357 10.6832 12.826V9.81365C10.6832 9.70395 10.6397 9.59874 10.5621 9.52117C10.4845 9.4436 10.3793 9.40002 10.2696 9.40002ZM13.0444 7.339H11.9241C11.8692 7.33947 11.815 7.35075 11.7644 7.37222C11.7139 7.39369 11.6682 7.42492 11.6297 7.46411C11.5913 7.5033 11.561 7.54969 11.5405 7.60062C11.5201 7.65155 11.5099 7.70601 11.5105 7.7609V12.8177C11.5099 12.8726 11.5201 12.9271 11.5405 12.978C11.561 13.0289 11.5913 13.0753 11.6297 13.1145C11.6682 13.1537 11.7139 13.1849 11.7644 13.2064C11.815 13.2279 11.8692 13.2392 11.9241 13.2396H13.0421C13.0973 13.2398 13.1521 13.229 13.2032 13.2078C13.2542 13.1866 13.3006 13.1554 13.3395 13.1162C13.3784 13.0769 13.4092 13.0303 13.4299 12.9791C13.4507 12.9279 13.461 12.873 13.4604 12.8177V7.7609C13.461 7.70582 13.4507 7.65116 13.4301 7.60008C13.4095 7.54899 13.379 7.5025 13.3403 7.46327C13.3017 7.42405 13.2556 7.39287 13.2048 7.37154C13.154 7.35021 13.0995 7.33916 13.0444 7.339ZM14.1553 5.04399L13.7736 3.24532C13.7381 3.08699 13.6421 2.94884 13.506 2.86047C13.3699 2.77211 13.2047 2.74057 13.0456 2.77261L11.2517 3.16142C11.0924 3.19542 10.9533 3.29129 10.8647 3.42792C10.7762 3.56455 10.7455 3.73076 10.7795 3.88998C10.8136 4.0492 10.9094 4.18839 11.0461 4.27693C11.1827 4.36547 11.3489 4.39611 11.5081 4.3621L11.8426 4.2912C10.5001 6.27895 8.7073 7.65454 6.50683 8.38251C5.52592 8.71029 4.50024 8.88449 3.46611 8.89895C3.34793 8.89895 3.26639 8.89895 3.24866 8.89895C3.08631 8.88735 2.926 8.94073 2.80299 9.04733C2.67999 9.15393 2.60437 9.30503 2.59278 9.46739C2.58118 9.62974 2.63455 9.79005 2.74116 9.91306C2.84776 10.0361 2.99886 10.1117 3.16121 10.1233C3.18249 10.1233 3.29712 10.1327 3.48975 10.1327C4.63829 10.1167 5.77735 9.92213 6.86609 9.55602C8.05691 9.16675 9.17504 8.58293 10.1751 7.82826C11.2303 7.02391 12.1441 6.04939 12.879 4.94472L12.9546 5.29925C12.9713 5.37812 13.0034 5.45291 13.0491 5.51937C13.0947 5.58582 13.153 5.64262 13.2206 5.68652C13.2882 5.73043 13.3638 5.76057 13.4431 5.77523C13.5224 5.78989 13.6037 5.78878 13.6826 5.77196C13.7615 5.75525 13.8362 5.72316 13.9027 5.67752C13.9691 5.63188 14.026 5.57358 14.0699 5.50597C14.1138 5.43836 14.1439 5.36276 14.1586 5.28349C14.1732 5.20422 14.1721 5.12283 14.1553 5.04399Z" fill="white"/>
</g>
</svg>
