<svg width="12" height="13" viewBox="0 0 12 13" fill="none" xmlns="http://www.w3.org/2000/svg">
<g opacity="0.7" clip-path="url(#clip0_104_4839)">
<path d="M0.75 10.9487C0.75 11.5698 1.25391 12.0737 1.875 12.0737H10.125C10.7461 12.0737 11.25 11.5698 11.25 10.9487V4.57373H0.75V10.9487ZM8.25 6.35498C8.25 6.20029 8.37656 6.07373 8.53125 6.07373H9.46875C9.62344 6.07373 9.75 6.20029 9.75 6.35498V7.29248C9.75 7.44717 9.62344 7.57373 9.46875 7.57373H8.53125C8.37656 7.57373 8.25 7.44717 8.25 7.29248V6.35498ZM8.25 9.35498C8.25 9.20029 8.37656 9.07373 8.53125 9.07373H9.46875C9.62344 9.07373 9.75 9.20029 9.75 9.35498V10.2925C9.75 10.4472 9.62344 10.5737 9.46875 10.5737H8.53125C8.37656 10.5737 8.25 10.4472 8.25 10.2925V9.35498ZM5.25 6.35498C5.25 6.20029 5.37656 6.07373 5.53125 6.07373H6.46875C6.62344 6.07373 6.75 6.20029 6.75 6.35498V7.29248C6.75 7.44717 6.62344 7.57373 6.46875 7.57373H5.53125C5.37656 7.57373 5.25 7.44717 5.25 7.29248V6.35498ZM5.25 9.35498C5.25 9.20029 5.37656 9.07373 5.53125 9.07373H6.46875C6.62344 9.07373 6.75 9.20029 6.75 9.35498V10.2925C6.75 10.4472 6.62344 10.5737 6.46875 10.5737H5.53125C5.37656 10.5737 5.25 10.4472 5.25 10.2925V9.35498ZM2.25 6.35498C2.25 6.20029 2.37656 6.07373 2.53125 6.07373H3.46875C3.62344 6.07373 3.75 6.20029 3.75 6.35498V7.29248C3.75 7.44717 3.62344 7.57373 3.46875 7.57373H2.53125C2.37656 7.57373 2.25 7.44717 2.25 7.29248V6.35498ZM2.25 9.35498C2.25 9.20029 2.37656 9.07373 2.53125 9.07373H3.46875C3.62344 9.07373 3.75 9.20029 3.75 9.35498V10.2925C3.75 10.4472 3.62344 10.5737 3.46875 10.5737H2.53125C2.37656 10.5737 2.25 10.4472 2.25 10.2925V9.35498ZM10.125 1.57373H9V0.44873C9 0.24248 8.83125 0.0737305 8.625 0.0737305H7.875C7.66875 0.0737305 7.5 0.24248 7.5 0.44873V1.57373H4.5V0.44873C4.5 0.24248 4.33125 0.0737305 4.125 0.0737305H3.375C3.16875 0.0737305 3 0.24248 3 0.44873V1.57373H1.875C1.25391 1.57373 0.75 2.07764 0.75 2.69873V3.82373H11.25V2.69873C11.25 2.07764 10.7461 1.57373 10.125 1.57373Z" fill="white"/>
</g>
<defs>
<clipPath id="clip0_104_4839">
<rect width="12" height="12" fill="white" transform="translate(0 0.0737305)"/>
</clipPath>
</defs>
</svg>
