<svg width="39" height="51" viewBox="0 0 39 51" fill="none" xmlns="http://www.w3.org/2000/svg">
<rect width="39" height="51" fill="#29292C"/>
<rect width="1728" height="1513" transform="translate(-121 -33)" fill="#0E0D15"/>
<path fill-rule="evenodd" clip-rule="evenodd" d="M27.335 26.548C26.2683 26.4956 25.0402 26.7898 24.3953 25.1044C25.3766 25.3867 26.8397 25.0309 27.335 26.548ZM30.235 18.8565C28.6206 19.2926 28.3011 19.5859 26.7366 18.9275C25.6843 18.4846 24.6987 18.0933 23.6033 17.7104C21.4607 16.9615 18.1702 16.8491 16.6725 18.3866C14.6068 18.3705 13.2967 16.6116 13.8089 14.3937C14.6178 10.886 18.3173 9.35534 17.7459 4.65843C17.5228 2.82345 16.2575 1.07131 15.0243 0.494019C15.4402 1.82694 16.0868 2.51072 15.687 4.31781C15.064 7.14001 11.2918 9.25729 9.24975 11.9028C8.48034 12.9205 7.96192 14.1053 7.73663 15.361C7.51134 16.6167 7.58553 17.9079 7.95318 19.1295C8.13431 19.7087 8.37685 20.2669 8.67669 20.7946C9.60136 22.3946 10.6207 23.0471 12.2139 24.1053L11.8023 24.3445C8.47214 25.9564 5.10562 27.837 2.74576 30.7234L1.67401 31.9346C1.07306 32.5618 0.534651 33.2777 -0.0012207 33.9919C4.02289 43.6385 13.5435 50.418 24.6489 50.418C26.1786 50.4186 27.7055 50.2886 29.2131 50.0292C28.9331 49.8876 28.6656 49.7224 28.4135 49.5356C27.1203 48.6295 25.4434 47.2459 24.8154 45.5284C24.0792 43.5142 24.2744 40.8298 25.3758 39.2264C26.3486 37.8123 27.7644 36.7271 30.0025 36.2529C32.8306 35.6536 38.9839 37.2012 38.0676 29.7447C36.1177 28.8994 35.1567 28.4625 33.779 27.2166C31.4639 25.1213 32.5788 24.6809 31.3769 22.8383C34.6107 21.7066 36.7102 20.1615 37.7946 17.1855C38.4187 15.4857 38.4961 13.6335 38.0161 11.8876C37.711 10.7364 36.6739 8.47885 35.9275 8.01313C36.3578 10.7567 36.6925 12.8191 35.2835 15.2144C34.2489 16.9733 32.7022 18.1888 30.2341 18.8565H30.235ZM15.1638 28.6721C14.065 29.1048 12.5918 29.6804 11.8302 30.251C11.7499 29.0617 12.0652 27.9494 12.5765 27.1786C12.8876 26.7086 13.0896 26.4297 13.5063 26.1482C13.8909 25.8888 14.3515 25.5997 14.8401 25.5228C14.0734 26.368 13.6314 26.3317 13.3677 27.9376C13.6339 27.7914 13.508 27.8674 13.7387 27.684C14.6812 26.9368 15.2027 26.7948 16.5601 26.8548C16.3344 27.0797 15.6836 27.5615 15.354 27.6265C16.3454 27.4575 17.2413 26.9013 17.8474 26.4162C17.6386 27.3882 16.2237 28.2537 15.1638 28.6712V28.6721ZM15.9574 19.482C21.2147 20.5748 19.7314 23.8036 16.9717 23.5855C12.7659 23.2542 9.63855 19.285 10.4745 15.1333C11.1168 11.9451 13.8714 9.46099 15.2534 8.39094C13.7599 10.1803 9.47035 18.1347 15.9541 19.482H15.9574Z" fill="#2381C9"/>
</svg>
