<svg width="17" height="17" viewBox="0 0 17 17" fill="none" xmlns="http://www.w3.org/2000/svg">
<g clip-path="url(#clip0_104_4613)">
<path d="M2.52386 2.47058V16.1303" stroke="white" stroke-linecap="round" stroke-linejoin="round"/>
<path d="M14.4761 2.47058V10.1542" stroke="white" stroke-linecap="round" stroke-linejoin="round"/>
<path d="M2.52386 2.47048C3.3218 1.68834 4.3946 1.25024 5.51194 1.25024C6.62927 1.25024 7.70207 1.68834 8.50001 2.47048C9.29795 3.25261 10.3707 3.69071 11.4881 3.69071C12.6054 3.69071 13.6782 3.25261 14.4762 2.47048" stroke="white" stroke-linecap="round" stroke-linejoin="round"/>
<path d="M2.52386 10.1541C3.3218 9.37193 4.3946 8.93384 5.51194 8.93384C6.62927 8.93384 7.70207 9.37193 8.50001 10.1541C9.29795 10.9362 10.3707 11.3743 11.4881 11.3743C12.6054 11.3743 13.6782 10.9362 14.4762 10.1541" stroke="white" stroke-linecap="round" stroke-linejoin="round"/>
</g>
<defs>
<clipPath id="clip0_104_4613">
<rect width="16" height="16" fill="white" transform="translate(0.5 0.5)"/>
</clipPath>
</defs>
</svg>
