<svg width="12" height="12" viewBox="0 0 12 12" fill="none" xmlns="http://www.w3.org/2000/svg">
<g clip-path="url(#clip0_104_4006)">
<path d="M12 0.75C12 3.4125 10.0172 5.61328 7.44844 5.95312C7.28203 4.70156 6.73125 3.57187 5.91797 2.68828C6.81563 1.08516 8.53125 0 10.5 0H11.25C11.6648 0 12 0.335156 12 0.75ZM0 2.25C0 1.83516 0.335156 1.5 0.75 1.5H1.5C4.39922 1.5 6.75 3.85078 6.75 6.75V7.5V11.25C6.75 11.6648 6.41484 12 6 12C5.58516 12 5.25 11.6648 5.25 11.25V7.5C2.35078 7.5 0 5.14922 0 2.25Z" fill="#68D391"/>
</g>
<defs>
<clipPath id="clip0_104_4006">
<rect width="12" height="12" fill="white"/>
</clipPath>
</defs>
</svg>
