<svg width="171" height="57" viewBox="0 0 171 57" fill="none" xmlns="http://www.w3.org/2000/svg">
<path fill-rule="evenodd" clip-rule="evenodd" d="M27.335 29.548C26.2683 29.4956 25.0402 29.7898 24.3953 28.1044C25.3766 28.3867 26.8397 28.0309 27.335 29.548ZM30.235 21.8565C28.6206 22.2926 28.3011 22.5859 26.7366 21.9275C25.6843 21.4846 24.6987 21.0933 23.6033 20.7104C21.4607 19.9615 18.1702 19.8491 16.6725 21.3866C14.6068 21.3705 13.2967 19.6116 13.8089 17.3937C14.6178 13.886 18.3173 12.3553 17.7459 7.65843C17.5228 5.82345 16.2575 4.07131 15.0243 3.49402C15.4402 4.82694 16.0868 5.51072 15.687 7.31781C15.064 10.14 11.2918 12.2573 9.24975 14.9028C8.48034 15.9205 7.96192 17.1053 7.73663 18.361C7.51134 19.6167 7.58553 20.9079 7.95318 22.1295C8.13431 22.7087 8.37685 23.2669 8.67669 23.7946C9.60136 25.3946 10.6207 26.0471 12.2139 27.1053L11.8023 27.3445C8.47214 28.9564 5.10562 30.837 2.74576 33.7234L1.67401 34.9346C1.07306 35.5618 0.534651 36.2777 -0.0012207 36.9919C4.02289 46.6385 13.5435 53.418 24.6489 53.418C26.1786 53.4186 27.7055 53.2886 29.2131 53.0292C28.9331 52.8876 28.6656 52.7224 28.4135 52.5356C27.1203 51.6295 25.4434 50.2459 24.8154 48.5284C24.0792 46.5142 24.2744 43.8298 25.3758 42.2264C26.3486 40.8123 27.7644 39.7271 30.0025 39.2529C32.8306 38.6536 38.9839 40.2012 38.0676 32.7447C36.1177 31.8994 35.1567 31.4625 33.779 30.2166C31.4639 28.1213 32.5788 27.6809 31.3769 25.8383C34.6107 24.7066 36.7102 23.1615 37.7946 20.1855C38.4187 18.4857 38.4961 16.6335 38.0161 14.8876C37.711 13.7364 36.6739 11.4788 35.9275 11.0131C36.3578 13.7567 36.6925 15.8191 35.2835 18.2144C34.2489 19.9733 32.7022 21.1888 30.2341 21.8565H30.235ZM15.1638 31.6721C14.065 32.1048 12.5918 32.6804 11.8302 33.251C11.7499 32.0617 12.0652 30.9494 12.5765 30.1786C12.8876 29.7086 13.0896 29.4297 13.5063 29.1482C13.8909 28.8888 14.3515 28.5997 14.8401 28.5228C14.0734 29.368 13.6314 29.3317 13.3677 30.9376C13.6339 30.7914 13.508 30.8674 13.7387 30.684C14.6812 29.9368 15.2027 29.7948 16.5601 29.8548C16.3344 30.0797 15.6836 30.5615 15.354 30.6265C16.3454 30.4575 17.2413 29.9013 17.8474 29.4162C17.6386 30.3882 16.2237 31.2537 15.1638 31.6712V31.6721ZM15.9574 22.482C21.2147 23.5748 19.7314 26.8036 16.9717 26.5855C12.7659 26.2542 9.63855 22.285 10.4745 18.1333C11.1168 14.9451 13.8714 12.461 15.2534 11.3909C13.7599 13.1803 9.47035 21.1347 15.9541 22.482H15.9574Z" fill="#2381C9"/>
<path d="M61.2203 35.1605C62.4864 35.9413 63.3093 37.1652 63.3093 38.8744C63.3093 41.3644 61.8533 43.1791 58.4982 43.1791H44.9933V28.4081H57.9918C61.3469 28.4081 62.3808 30.1173 62.3808 32.2908C62.3808 33.3247 61.9588 34.3376 61.2203 35.1605ZM48.7915 31.1513V34.211H56.6202H56.6413C57.6541 34.211 58.5826 34.211 58.5826 32.6706C58.5826 31.1513 57.6541 31.1513 56.6202 31.1513H48.7915ZM57.5697 40.246C58.5826 40.246 59.5111 40.246 59.5111 38.6845C59.5111 37.123 58.5826 37.123 57.5697 37.123H48.7915V40.246H57.5697ZM78.2641 30.7504H81.8724V43.1791H78.2641V41.0056C76.4916 42.3983 74.0438 43.3901 71.0263 43.3901C67.7134 43.3901 64.6115 42.2084 64.5693 37.6294L64.6115 30.7504H68.2409V36.2578C68.2409 38.8955 69.1272 40.2671 72.1025 40.2671C74.5291 40.2671 77.1457 39.0221 78.2641 37.7138V30.7504ZM83.4662 26.298H87.0746V43.1791H83.4662V26.298ZM88.7622 26.298H92.3705V43.1791H88.7622V26.298ZM93.7441 38.8111H97.3524C97.3524 40.1405 98.724 40.6469 102.754 40.6469C106.658 40.6469 107.291 40.3937 107.291 39.423C107.291 38.4735 106.7 38.4102 102.332 38.1358C96.8671 37.8193 94.1872 37.3973 94.1872 34.4009C94.1872 31.1513 97.9855 30.5393 102.417 30.5393C107.101 30.5393 110.499 31.1513 110.499 34.5697H106.869C106.869 33.5357 105.561 33.2825 102.206 33.2825C98.7873 33.2825 97.8167 33.5357 97.8167 34.2532C97.8167 35.0339 98.4708 35.1605 102.754 35.4771C107.608 35.8358 110.921 35.9624 110.921 39.2753C110.921 42.7782 107.755 43.3901 102.965 43.3901C98.1754 43.3901 93.7441 42.7782 93.7441 38.8111ZM123.141 30.5393C126.454 30.5393 129.556 31.721 129.598 36.3L129.556 43.1791H125.927V37.6716C125.927 35.0339 125.04 33.6623 122.065 33.6623C119.638 33.6623 117.022 34.9073 115.904 36.2156V43.1791H112.295V26.298H115.904V32.9238C117.676 31.5311 120.124 30.5393 123.141 30.5393ZM139.466 43.3901C134.318 43.3901 130.857 41.5332 130.857 36.9753C130.857 32.3963 134.318 30.5393 139.466 30.5393C144.594 30.5393 148.076 32.3963 148.076 36.9753C148.076 41.5332 144.594 43.3901 139.466 43.3901ZM139.466 40.3726C142.8 40.3726 144.446 39.5496 144.446 36.9753C144.446 34.3798 142.8 33.5568 139.466 33.5568C136.111 33.5568 134.465 34.3798 134.465 36.9753C134.465 39.5496 136.111 40.3726 139.466 40.3726ZM161.119 33.7679H155.232V37.3551C155.232 39.7607 155.696 40.3726 157.891 40.3726C159.03 40.3726 159.663 40.3726 161.119 40.1616V43.0736C159.916 43.2846 158.545 43.3901 156.878 43.3901C153.67 43.3901 151.602 42.1873 151.602 39.4441V33.7679H148.332V30.7504H151.602V28.176L155.232 27.142V30.7504H161.119V33.7679Z" fill="#2381C9"/>
</svg>
