<svg width="16" height="20" viewBox="0 0 16 20" fill="none" xmlns="http://www.w3.org/2000/svg">
<path fill-rule="evenodd" clip-rule="evenodd" d="M11.0298 10.4049C10.6343 10.3855 10.179 10.4945 9.93989 9.86967C10.3037 9.97433 10.8461 9.84241 11.0298 10.4049ZM12.1049 7.55331C11.5064 7.715 11.3879 7.82374 10.8079 7.57963C10.4178 7.41543 10.0524 7.27034 9.64627 7.12839C8.8519 6.85075 7.63199 6.80907 7.07671 7.37908C6.31086 7.37312 5.82515 6.72102 6.01505 5.89876C6.31493 4.59831 7.68651 4.03082 7.47468 2.28947C7.39196 1.60917 6.92285 0.95957 6.46566 0.745544C6.61983 1.23971 6.85956 1.49322 6.71134 2.16319C6.48039 3.2095 5.08186 3.99447 4.32478 4.97529C4.03953 5.35257 3.84733 5.79183 3.7638 6.25738C3.68028 6.72292 3.70778 7.20161 3.84409 7.65452C3.91124 7.86927 4.00116 8.07622 4.11232 8.27184C4.45514 8.86503 4.83305 9.10695 5.42374 9.49927L5.27113 9.58796C4.03649 10.1855 2.78837 10.8828 1.91347 11.9529L1.51613 12.4019C1.29333 12.6344 1.09372 12.8999 0.895048 13.1647C2.38696 16.741 5.91665 19.2545 10.0339 19.2545C10.601 19.2547 11.1671 19.2065 11.726 19.1104C11.6222 19.0579 11.5231 18.9966 11.4296 18.9274C10.9502 18.5914 10.3285 18.0785 10.0956 17.4417C9.82269 16.695 9.89508 15.6997 10.3034 15.1053C10.6641 14.581 11.1889 14.1787 12.0187 14.0029C13.0672 13.7807 15.3485 14.3545 15.0088 11.59C14.2859 11.2767 13.9296 11.1146 13.4188 10.6528C12.5605 9.87593 12.9739 9.71267 12.5283 9.02955C13.7272 8.60996 14.5056 8.03713 14.9076 6.93379C15.139 6.30362 15.1677 5.61692 14.9897 4.96965C14.8766 4.54285 14.4921 3.70586 14.2154 3.5332C14.3749 4.55037 14.499 5.31497 13.9766 6.20303C13.5931 6.85514 13.0196 7.30575 12.1046 7.55331H12.1049ZM6.51737 11.1924C6.11 11.3528 5.56381 11.5662 5.28147 11.7777C5.2517 11.3368 5.36859 10.9244 5.55817 10.6387C5.67349 10.4644 5.74838 10.361 5.90287 10.2567C6.04544 10.1605 6.21623 10.0533 6.39735 10.0248C6.11313 10.3381 5.94924 10.3247 5.85147 10.9201C5.95018 10.8658 5.90349 10.894 5.98904 10.826C6.33844 10.549 6.53178 10.4964 7.03504 10.5186C6.95137 10.602 6.71008 10.7806 6.58787 10.8047C6.95544 10.7421 7.28761 10.5359 7.51229 10.356C7.43489 10.7164 6.91032 11.0372 6.51737 11.192V11.1924ZM6.81161 7.78519C8.76072 8.19037 8.21077 9.38741 7.18764 9.30656C5.62836 9.18372 4.46893 7.71218 4.77884 6.17295C5.01699 4.99095 6.03824 4.06999 6.55058 3.67327C5.99687 4.33666 4.40657 7.2857 6.81036 7.78519H6.81161Z" fill="url(#paint0_linear_104_4024)"/>
<defs>
<linearGradient id="paint0_linear_104_4024" x1="8" y1="0.745544" x2="8" y2="19.2545" gradientUnits="userSpaceOnUse">
<stop stop-color="#2381C9"/>
</linearGradient>
</defs>
</svg>
