<svg width="17" height="17" viewBox="0 0 17 17" fill="none" xmlns="http://www.w3.org/2000/svg">
<g clip-path="url(#clip0_104_4605)">
<path d="M3.6408 10.9295C4.98263 10.9295 6.0704 9.84173 6.0704 8.4999C6.0704 7.15808 4.98263 6.07031 3.6408 6.07031C2.29898 6.07031 1.21121 7.15808 1.21121 8.4999C1.21121 9.84173 2.29898 10.9295 3.6408 10.9295Z" stroke="white" stroke-linecap="round" stroke-linejoin="round"/>
<path d="M13.3592 6.07037C14.701 6.07037 15.7888 4.9826 15.7888 3.64077C15.7888 2.29895 14.701 1.21118 13.3592 1.21118C12.0174 1.21118 10.9296 2.29895 10.9296 3.64077C10.9296 4.9826 12.0174 6.07037 13.3592 6.07037Z" stroke="white" stroke-linecap="round" stroke-linejoin="round"/>
<path d="M13.3592 15.7889C14.701 15.7889 15.7888 14.7011 15.7888 13.3593C15.7888 12.0175 14.701 10.9297 13.3592 10.9297C12.0174 10.9297 10.9296 12.0175 10.9296 13.3593C10.9296 14.7011 12.0174 15.7889 13.3592 15.7889Z" stroke="white" stroke-linecap="round" stroke-linejoin="round"/>
<path d="M5.82745 7.44714L11.1726 4.6936" stroke="white" stroke-linecap="round" stroke-linejoin="round"/>
<path d="M5.82745 9.55286L11.1726 12.3064" stroke="white" stroke-linecap="round" stroke-linejoin="round"/>
</g>
<defs>
<clipPath id="clip0_104_4605">
<rect width="16" height="16" fill="white" transform="translate(0.5 0.5)"/>
</clipPath>
</defs>
</svg>
