<svg width="12" height="13" viewBox="0 0 12 13" fill="none" xmlns="http://www.w3.org/2000/svg">
<g opacity="0.7" clip-path="url(#clip0_104_4818)">
<path d="M5.24412 3.13818L3.62389 0.437949C3.55727 0.32687 3.46302 0.234938 3.35031 0.17111C3.23761 0.107281 3.11029 0.0737321 2.98076 0.0737305H0.375686C0.0721706 0.0737305 -0.105486 0.415215 0.0684205 0.663887L2.67631 4.38951C3.37287 3.73865 4.25881 3.29193 5.24412 3.13818ZM11.6243 0.0737305H9.0192C8.75576 0.0737305 8.51155 0.212012 8.37608 0.437949L6.75584 3.13818C7.74115 3.29193 8.62709 3.73865 9.32365 4.38928L11.9315 0.663887C12.1055 0.415215 11.9278 0.0737305 11.6243 0.0737305ZM5.99998 3.82373C3.72186 3.82373 1.87498 5.67061 1.87498 7.94873C1.87498 10.2269 3.72186 12.0737 5.99998 12.0737C8.27811 12.0737 10.125 10.2269 10.125 7.94873C10.125 5.67061 8.27811 3.82373 5.99998 3.82373ZM8.16842 7.50951L7.27944 8.37576L7.48967 9.59967C7.52717 9.81904 7.29608 9.98662 7.09944 9.88303L5.99998 9.30529L4.90076 9.88303C4.70389 9.98732 4.47303 9.81881 4.51053 9.59967L4.72076 8.37576L3.83178 7.50951C3.67194 7.35389 3.7603 7.08225 3.98061 7.05037L5.20944 6.87131L5.75858 5.75756C5.80803 5.65725 5.90366 5.60779 5.99951 5.60779C6.09584 5.60779 6.19217 5.65795 6.24162 5.75756L6.79076 6.87131L8.01959 7.05037C8.23991 7.08225 8.32826 7.35389 8.16842 7.50951Z" fill="white"/>
<g clip-path="url(#clip1_104_4818)">
<path d="M0.00878906 0.144043H0.237305C0.242161 0.144043 0.246094 0.14011 0.246094 0.135254V0.100098C0.246094 0.0952417 0.242161 0.0913086 0.237305 0.0913086H0.00878906C0.00393311 0.0913086 0 0.0952417 0 0.100098V0.135254C0 0.14011 0.00393311 0.144043 0.00878906 0.144043ZM0.272461 0.187988H0.0439453C0.0390894 0.187988 0.0351562 0.191921 0.0351562 0.196777V0.231934C0.0351562 0.23679 0.0390894 0.240723 0.0439453 0.240723H0.272461C0.277317 0.240723 0.28125 0.23679 0.28125 0.231934V0.196777C0.28125 0.191921 0.277317 0.187988 0.272461 0.187988ZM0.237305 0.284668H0.00878906C0.00393311 0.284668 0 0.288601 0 0.293457V0.328613C0 0.333469 0.00393311 0.337402 0.00878906 0.337402H0.237305C0.242161 0.337402 0.246094 0.333469 0.246094 0.328613V0.293457C0.246094 0.288601 0.242161 0.284668 0.237305 0.284668Z" fill="white"/>
</g>
</g>
<defs>
<clipPath id="clip0_104_4818">
<rect width="12" height="12" fill="white" transform="translate(0 0.0737305)"/>
</clipPath>
<clipPath id="clip1_104_4818">
<rect width="0.28125" height="0.28125" fill="white" transform="translate(0 0.0737305)"/>
</clipPath>
</defs>
</svg>
