<svg width="12" height="13" viewBox="0 0 12 13" fill="none" xmlns="http://www.w3.org/2000/svg">
<g opacity="0.7" clip-path="url(#clip0_104_4814)">
<path d="M0.375 3.07373H10.125C10.3322 3.07373 10.5 2.90592 10.5 2.69873V1.19873C10.5 0.991543 10.3322 0.82373 10.125 0.82373H0.375C0.167812 0.82373 0 0.991543 0 1.19873V2.69873C0 2.90592 0.167812 3.07373 0.375 3.07373ZM11.625 4.94873H1.875C1.66781 4.94873 1.5 5.11654 1.5 5.32373V6.82373C1.5 7.03092 1.66781 7.19873 1.875 7.19873H11.625C11.8322 7.19873 12 7.03092 12 6.82373V5.32373C12 5.11654 11.8322 4.94873 11.625 4.94873ZM10.125 9.07373H0.375C0.167812 9.07373 0 9.24154 0 9.44873V10.9487C0 11.1559 0.167812 11.3237 0.375 11.3237H10.125C10.3322 11.3237 10.5 11.1559 10.5 10.9487V9.44873C10.5 9.24154 10.3322 9.07373 10.125 9.07373Z" fill="white"/>
</g>
<defs>
<clipPath id="clip0_104_4814">
<rect width="12" height="12" fill="white" transform="translate(0 0.0737305)"/>
</clipPath>
</defs>
</svg>
