<svg width="12" height="13" viewBox="0 0 12 13" fill="none" xmlns="http://www.w3.org/2000/svg">
<g opacity="0.7" clip-path="url(#clip0_104_5153)">
<path d="M10.125 7.57373H9.375C9.27554 7.57373 9.18016 7.61324 9.10983 7.68357C9.03951 7.75389 9 7.84927 9 7.94873V10.5737H1.5V3.07373H4.875C4.97446 3.07373 5.06984 3.03422 5.14016 2.9639C5.21049 2.89357 5.25 2.79819 5.25 2.69873V1.94873C5.25 1.84927 5.21049 1.75389 5.14016 1.68357C5.06984 1.61324 4.97446 1.57373 4.875 1.57373H1.125C0.826631 1.57373 0.540483 1.69226 0.329505 1.90324C0.118526 2.11421 0 2.40036 0 2.69873L0 10.9487C0 11.2471 0.118526 11.5332 0.329505 11.7442C0.540483 11.9552 0.826631 12.0737 1.125 12.0737H9.375C9.67337 12.0737 9.95952 11.9552 10.1705 11.7442C10.3815 11.5332 10.5 11.2471 10.5 10.9487V7.94873C10.5 7.84927 10.4605 7.75389 10.3902 7.68357C10.3198 7.61324 10.2245 7.57373 10.125 7.57373ZM11.4375 0.0737305H8.4375C7.93664 0.0737305 7.68633 0.680996 8.03906 1.03467L8.87648 1.87209L3.16406 7.5824C3.11162 7.63466 3.07001 7.69676 3.04162 7.76513C3.01323 7.8335 2.99862 7.90681 2.99862 7.98084C2.99862 8.05487 3.01323 8.12818 3.04162 8.19655C3.07001 8.26492 3.11162 8.32702 3.16406 8.37928L3.69539 8.90967C3.74765 8.96211 3.80974 9.00372 3.87812 9.03211C3.94649 9.0605 4.0198 9.07511 4.09383 9.07511C4.16786 9.07511 4.24117 9.0605 4.30954 9.03211C4.37791 9.00372 4.44001 8.96211 4.49227 8.90967L10.2019 3.19842L11.0391 4.03467C11.3906 4.38623 12 4.14014 12 3.63623V0.63623C12 0.487046 11.9407 0.343972 11.8352 0.238483C11.7298 0.132994 11.5867 0.0737305 11.4375 0.0737305Z" fill="white"/>
</g>
<defs>
<clipPath id="clip0_104_5153">
<rect width="12" height="12" fill="white" transform="translate(0 0.0737305)"/>
</clipPath>
</defs>
</svg>
