<svg width="66" height="66" viewBox="0 0 66 66" fill="none" xmlns="http://www.w3.org/2000/svg">
<path d="M15.1267 22.0296C25.0148 12.3532 41.0421 12.3532 50.9302 22.0296L52.1184 23.1974C52.6101 23.6822 52.6101 24.4675 52.1184 24.9524L48.0484 28.9336C47.8026 29.1726 47.3997 29.1726 47.1539 28.9336L45.5149 27.3288C38.6178 20.582 27.4322 20.582 20.5351 27.3288L18.7801 29.0428C18.5343 29.2818 18.1314 29.2818 17.8855 29.0428L13.8156 25.0616C13.3239 24.5768 13.3239 23.7915 13.8156 23.3066L15.1199 22.0296H15.1267ZM59.3501 30.2652L62.9694 33.8094C63.4611 34.2942 63.4611 35.0795 62.9694 35.5644L46.6349 51.5506C46.1432 52.0355 45.3374 52.0355 44.8457 51.5506L33.2504 40.208C33.1275 40.085 32.9294 40.085 32.7997 40.208L21.2044 51.5506C20.7127 52.0355 19.9069 52.0355 19.4152 51.5506L3.08067 35.5644C2.589 35.0795 2.589 34.2942 3.08067 33.8094L6.69994 30.2652C7.19162 29.7804 7.99742 29.7804 8.48909 30.2652L20.0844 41.6079C20.2073 41.7308 20.4054 41.7308 20.5351 41.6079L32.1305 30.2652C32.6221 29.7804 33.4279 29.7804 33.9196 30.2652L45.5149 41.6147C45.6379 41.7376 45.8359 41.7376 45.9656 41.6147L57.561 30.272C58.0526 29.7872 58.8585 29.7872 59.3501 30.272V30.2652Z" fill="#5570FF"/>
</svg>
